<svg width="83" height="83" viewBox="0 0 83 83" fill="none" xmlns="http://www.w3.org/2000/svg">
<path d="M41.5 83C64.4198 83 83 64.4198 83 41.5C83 18.5802 64.4198 0 41.5 0C18.5802 0 0 18.5802 0 41.5C0 64.4198 18.5802 83 41.5 83Z" fill="#131313"/>
<path d="M39.9619 52.045C39.9619 52.045 35.6872 56.2128 35.1529 56.7115C35.5447 56.3196 37.6465 54.2892 39.9619 52.045Z" fill="white"/>
<path d="M58.8438 23.0464C60.055 23.1889 60.8743 24.3644 60.3756 26.4305L53.7142 57.7781C53.4292 59.1674 52.788 59.8799 51.8975 59.9867C52.8236 59.9155 53.5005 59.203 53.7854 57.7781L60.4468 26.4305C60.9455 24.3288 60.0906 23.1533 58.8438 23.0464Z" fill="white"/>
<path d="M34.6982 57.1365C34.6982 57.1365 34.9832 56.8871 35.1257 56.7446C35.1257 56.7446 34.8407 56.994 34.6982 57.1365Z" fill="white"/>
<path d="M33.0928 57.7778C33.3421 57.7778 33.5559 57.7778 33.7696 57.7065C33.5915 57.7422 33.3421 57.7778 33.0928 57.7778Z" fill="white"/>
<path d="M33.6984 47.4141L33.0928 57.4239V57.7445C33.3421 57.7445 33.5559 57.7445 33.7696 57.6733C34.1614 57.5664 34.4464 57.3527 34.7314 57.139C34.8739 57.0321 35.0164 56.8896 35.1589 56.7471C35.6932 56.2128 39.9679 52.045 39.9679 52.045L33.6984 47.4141Z" fill="white"/>
<path d="M39.999 52.0068L50.0801 59.4875C50.7926 59.8794 51.3982 60.0219 51.9325 59.9862C51.3982 60.0219 50.8282 59.8794 50.1514 59.4875L40.0346 52.0068H39.999Z" fill="white"/>
<path d="M18.5567 38.3283L57.5987 23.2601C58.0262 23.082 58.4537 23.0107 58.8099 23.0107C58.418 22.9751 57.9549 23.0107 57.4919 23.2601L18.4854 38.3283C15.8137 39.397 15.8494 40.8931 18.0223 41.5343L28.0678 44.6691L18.0936 41.5343C15.9206 40.8931 15.885 39.397 18.5567 38.3283Z" fill="white"/>
<path d="M53.715 57.7781L60.3763 26.4305C60.875 24.4 60.0557 23.1889 58.8446 23.0464C58.4527 23.0464 58.0609 23.082 57.6334 23.2957L18.5557 38.3284C15.8841 39.397 15.9197 40.8932 18.0926 41.5344L28.0669 44.6691L51.257 30.064C52.3257 29.3872 53.3587 29.7434 52.5394 30.4915L33.6952 47.4121L39.9647 52.043L50.0815 59.488C50.7583 59.8442 51.3283 60.0224 51.8626 59.9867C52.7532 59.8799 53.3944 59.1674 53.6793 57.7781H53.715Z" fill="white"/>
</svg>
