<svg width="84" height="83" viewBox="0 0 84 83" fill="none" xmlns="http://www.w3.org/2000/svg">
<g id="&#208;&#146;&#208;&#186;">
<path id="Vector" d="M41.7002 83C64.62 83 83.2002 64.4198 83.2002 41.5C83.2002 18.5802 64.62 0 41.7002 0C18.7804 0 0.200195 18.5802 0.200195 41.5C0.200195 64.4198 18.7804 83 41.7002 83Z" fill="#131313"/>
<path id="path2442" d="M41.1651 55.6766H44.1574C44.1574 55.6766 45.0479 55.5697 45.511 55.071C45.9385 54.6079 45.9385 53.753 45.9385 53.753C45.9385 53.753 45.8672 49.7276 47.7552 49.1577C49.6076 48.5877 51.9586 53.0405 54.4522 54.7504C56.3402 56.0328 57.8007 55.7834 57.8007 55.7834L64.4977 55.6766C64.4977 55.6766 67.9887 55.4628 66.3501 52.7199C66.2076 52.5062 65.3883 50.6894 61.3629 46.9491C57.1595 43.0663 57.7295 43.6718 62.7878 36.9392C65.8513 32.8427 67.0981 30.3135 66.7063 29.2448C66.3501 28.2118 64.0702 28.4967 64.0702 28.4967H56.5183C56.5183 28.4967 55.9483 28.4967 55.5565 28.7105C55.1646 28.9598 54.8797 29.5298 54.8797 29.5298C54.8797 29.5298 53.6685 32.7002 52.1011 35.4075C48.7526 41.107 47.399 41.392 46.8646 41.0358C45.5822 40.2165 45.9028 37.7229 45.9028 35.9418C45.9028 30.4203 46.7578 28.1049 44.2642 27.5349C43.4449 27.3212 42.8393 27.2143 40.7376 27.1787C38.0303 27.1787 35.7861 27.1787 34.4681 27.8199C33.6131 28.2474 32.9363 29.1736 33.3638 29.2448C33.8625 29.316 35.0024 29.5654 35.5724 30.3491C36.3561 31.4178 36.3204 33.7688 36.3204 33.7688C36.3204 33.7688 36.7479 40.2877 35.2874 41.0714C34.2543 41.6414 32.8651 40.5015 29.8728 35.3362C28.341 32.7002 27.1655 29.7435 27.1655 29.7435C27.1655 29.7435 26.9518 29.2092 26.5599 28.8886C26.0612 28.5324 25.3844 28.4255 25.3844 28.4255H18.2243C18.2243 28.4255 17.1556 28.4967 16.7638 28.9598C16.4076 29.3873 16.7638 30.2422 16.7638 30.2422C16.7638 30.2422 22.3565 43.3512 28.7329 49.977C34.5393 56.0328 41.1651 55.6409 41.1651 55.6409" fill="white"/>
</g>
</svg>
