<svg width="83" height="83" viewBox="0 0 83 83" fill="none" xmlns="http://www.w3.org/2000/svg">
<g id="&#208;&#162;&#208;&#181;&#208;&#187;&#208;&#181;&#208;&#179;&#209;&#128;&#208;&#176;&#208;&#188;">
<path id="Vector" d="M41.5 83C64.4198 83 83 64.4198 83 41.5C83 18.5802 64.4198 0 41.5 0C18.5802 0 0 18.5802 0 41.5C0 64.4198 18.5802 83 41.5 83Z" fill="#131313"/>
<path id="Vector_2" fill-rule="evenodd" clip-rule="evenodd" d="M38.5551 33.5332C49.3338 29.8206 53.1605 46.7081 43.6022 50.126C32.8595 53.9677 28.4484 37.0168 38.5551 33.5332ZM48.9146 52.0926L49.9272 53.653C51.7018 62.4132 66.6915 56.3841 63.5751 37.6591C59.6046 13.8055 27.0852 12.8638 20.1803 34.5969C14.2195 53.363 32.0155 67.6369 47.13 63.1811C48.4505 62.7913 49.4192 62.5494 49.8969 61.2814C52.1277 55.3591 43.3202 59.047 39.8295 58.7769C29.7723 57.9985 21.4649 48.4376 25.0443 36.5166C27.9472 26.85 38.6843 20.5954 49.8126 26.2524C62.6985 32.8029 59.6417 51.2367 54.4664 52.0586C51.459 46.6212 57.7851 24.3303 49.4215 31.7861C45.9837 29.0985 41.458 26.9792 35.9062 29.4484C31.948 31.2096 28.427 35.1922 28.109 40.8773C27.4426 52.8053 40.3307 58.636 48.9146 52.0926Z" fill="white"/>
</g>
</svg>
