<svg width="45" height="37" viewBox="0 0 45 37" fill="none" xmlns="http://www.w3.org/2000/svg">
<g id="Group">
<path id="Vector" d="M23.9623 29.0453C23.9623 29.0453 19.6877 33.2131 19.1533 33.7118C19.5452 33.3199 21.6469 31.2895 23.9623 29.0453Z" fill="white"/>
<path id="Vector_2" d="M42.8441 0.0465088C44.0552 0.188998 44.8745 1.36454 44.3758 3.43063L37.7144 34.7783C37.4295 36.1675 36.7883 36.88 35.8977 36.9869C36.8239 36.9156 37.5007 36.2032 37.7857 34.7783L44.4471 3.43063C44.9458 1.32891 44.0908 0.153376 42.8441 0.0465088Z" fill="white"/>
<path id="Vector_3" d="M18.6979 34.1368C18.6979 34.1368 18.9829 33.8875 19.1253 33.745C19.1253 33.745 18.8404 33.9944 18.6979 34.1368Z" fill="white"/>
<path id="Vector_4" d="M17.093 34.7781C17.3424 34.7781 17.5561 34.7782 17.7698 34.7069C17.5917 34.7425 17.3424 34.7781 17.093 34.7781Z" fill="white"/>
<path id="Vector_5" d="M17.6986 24.4144L17.093 34.4242V34.7448C17.3424 34.7448 17.5561 34.7448 17.7698 34.6736C18.1617 34.5667 18.4467 34.353 18.7316 34.1393C18.8741 34.0324 19.0166 33.8899 19.1591 33.7474C19.6934 33.2131 23.9681 29.0453 23.9681 29.0453L17.6986 24.4144Z" fill="white"/>
<path id="Vector_6" d="M23.9988 29.0073L34.08 36.488C34.7924 36.8799 35.398 37.0223 35.9323 36.9867C35.398 37.0223 34.828 36.8799 34.1512 36.488L24.0345 29.0073H23.9988Z" fill="white"/>
<path id="Vector_7" d="M2.55666 15.3286L41.5987 0.260324C42.0262 0.0822121 42.4537 0.0109668 42.8099 0.0109668C42.418 -0.0246555 41.9549 0.0109675 41.4919 0.260324L2.48542 15.3286C-0.186254 16.3972 -0.150633 17.8934 2.02233 18.5346L12.0678 21.6693L2.09357 18.5346C-0.079388 17.8934 -0.11501 16.3972 2.55666 15.3286Z" fill="white"/>
<path id="Vector_8" d="M37.7149 34.7783L44.3763 3.43063C44.875 1.40016 44.0557 0.188998 42.8445 0.0465088C42.4527 0.0465088 42.0608 0.0821317 41.6334 0.295866L2.55567 15.3285C-0.116003 16.3972 -0.0803812 17.8933 2.09258 18.5345L12.0668 21.6693L35.257 7.0641C36.3256 6.38728 37.3587 6.74351 36.5394 7.49158L17.6952 24.4122L23.9647 29.0431L34.0814 36.4881C34.7583 36.8444 35.3282 37.0225 35.8625 36.9869C36.7531 36.88 37.3943 36.1675 37.6793 34.7783H37.7149Z" fill="white"/>
</g>
</svg>
