<svg width="1440" height="362" viewBox="0 0 1440 362" fill="none" xmlns="http://www.w3.org/2000/svg">
<path d="M-119 299.271C279.064 196.276 179.495 370.003 568.686 360.675C957.876 351.347 973.984 282.072 1050.77 175.08C1127.55 68.0872 1432.83 0.301463 1725.89 95.6718M-117.399 288.399C280.665 185.404 181.097 359.13 570.287 349.802C959.477 340.475 975.586 271.2 1052.37 164.207C1129.16 57.2149 1434.43 -10.5708 1727.49 84.7995M-115.797 277.527C282.267 174.531 182.698 348.258 571.888 338.93C961.078 329.602 977.187 260.327 1053.97 153.335C1130.76 46.3427 1436.03 -21.4431 1729.09 73.9272M-114.196 266.654C283.868 163.659 184.299 337.386 573.489 328.058C962.679 318.73 978.788 249.455 1055.57 142.463C1132.36 35.4704 1437.63 -32.3154 1730.69 63.0549M-112.595 255.782C285.469 152.787 185.901 326.514 575.091 317.186C964.281 307.858 980.389 238.583 1057.17 131.591C1133.96 24.5981 1439.23 -43.1876 1732.29 52.1827M-110.994 244.91C287.071 141.915 187.502 315.641 576.692 306.313C965.882 296.985 981.991 227.711 1058.78 120.718C1135.56 13.7258 1440.84 -54.0599 1733.89 41.3104M-109.392 234.038C288.672 131.042 189.103 304.769 578.293 295.441C967.483 286.113 983.592 216.838 1060.38 109.846C1137.16 2.85353 1442.44 -64.9322 1735.49 30.4381M-107.791 223.165C290.273 120.17 190.705 293.897 579.895 284.569C969.085 275.241 985.193 205.966 1061.98 98.9737C1138.76 -8.01874 1444.04 -75.8045 1737.1 19.5658M-106.19 212.293C291.874 109.298 192.306 283.024 581.496 273.697C970.686 264.369 986.795 195.094 1063.58 88.1014C1140.36 -18.891 1445.64 -86.6768 1738.7 8.69356M-104.588 201.421C293.476 98.4255 193.907 272.152 583.097 262.824C972.287 253.496 988.396 184.222 1065.18 77.2291C1141.97 -29.7633 1447.24 -97.549 1740.3 -2.17873M-102.987 190.548C295.077 87.5532 195.508 261.28 584.698 251.952C973.889 242.624 989.997 173.349 1066.78 66.3568C1143.57 -40.6356 1448.84 -108.421 1741.9 -13.051M-101.386 179.676C296.678 76.6809 197.11 250.408 586.3 241.08C975.49 231.752 991.598 162.477 1068.38 55.4845C1145.17 -51.5079 1450.44 -119.294 1743.5 -23.9233M-99.7845 168.804C298.28 65.8086 198.711 239.535 587.901 230.207C977.091 220.88 993.2 151.605 1069.98 44.6123C1146.77 -62.3801 1452.05 -130.166 1745.1 -34.7956M-98.1832 157.932C299.881 54.9363 200.312 228.663 589.502 219.335C978.692 210.007 994.801 140.732 1071.59 33.74C1148.37 -73.2524 1453.65 -141.038 1746.7 -45.6678M-96.5819 147.059C301.482 44.0641 201.914 217.791 591.104 208.463C980.294 199.135 996.402 129.86 1073.19 22.8677C1149.97 -84.1247 1455.25 -151.91 1748.3 -56.5401" stroke="#131313" stroke-opacity="0.3"/>
</svg>
